<?xml version="1.0" encoding="UTF-8"?>
<svg enable-background="new 0 0 500 500" version="1.1" viewBox="0 0 500 500" xml:space="preserve" xmlns="http://www.w3.org/2000/svg">
<path d="m284 501h-283c-1.7e-5 -166.67-1.7e-5 -333.33-3.4e-5 -500 166.67-4.7e-5 333.33-4.7e-5 500-9.3e-5 9.1e-5 166.67 9.1e-5 333.33 1.83e-4 500-72.167 2.14e-4 -144.33 2.14e-4 -217 2.14e-4m-232.56-285.5c-0.14783 1.6463-0.42194 3.2925-0.42432 4.939-0.029411 20.328-0.029369 40.656-0.013782 60.984 0.005668 7.3931 2.161 9.5673 9.4302 9.5703 20.328 0.008698 40.656 0.007935 60.984 4.89e-4 7.3166-0.002655 9.564-2.1989 9.5736-9.459 0.022934-17.329 0.40636-34.67-0.11975-51.983-0.4148-13.65 6.9438-18.448 18.548-18.528 15.329-0.10564 30.659-0.080155 45.988-0.004578 7.9166 0.039017 12.851 3.9836 14.584 11.647 0.6178 2.7312 0.94908 5.5853 0.96327 8.3855 0.086212 16.995 0.035813 33.991 0.04657 50.987 0.004334 6.8359 2.083 8.9507 8.8023 8.9545 18.162 0.010376 36.324-0.012299 54.486 0.010162 9.3982 0.011597 14.088 3.7668 16.032 13.002 0.50864 2.4167 0.64056 4.9489 0.64841 7.429 0.05368 16.995 0.016418 33.991 0.034301 50.987 0.006745 6.412 2.1995 8.5682 8.6817 8.5719 20.328 0.011414 40.656 0.004669 60.984 0.004059 8.7004-2.75e-4 10.328-1.6485 10.328-10.464 0.00119-16.829-0.056244-33.658 0.018371-50.487 0.061249-13.81 5.3651-19.049 19.018-19.049 17.329-4.27e-4 34.658 0.012756 51.987-0.006684 6.5862-0.007385 8.9556-2.3722 8.9657-9.0591 0.031159-20.661 0.031952-41.323-4.58e-4 -61.984-0.010345-6.5981-2.3812-8.927-9.1174-8.9384-20.495-0.034745-40.989-0.03096-61.484-0.002839-7.2592 0.009964-9.3783 2.2225-9.3835 9.6516-0.012238 17.495-7.93e-4 34.991-0.005035 52.486-0.002716 11.237-4.7855 17.223-15.814 17.6-16.141 0.55063-32.329 0.5445-48.471-0.00766-10.924-0.37372-15.707-6.2531-15.711-17.145-0.006745-17.662 7.32e-4 -35.324-0.003113-52.986-0.001678-7.7097-1.9123-9.6051-9.6944-9.6075-17.162-0.005219-34.325 0.065536-51.487-0.023545-13.446-0.069793-18.817-5.5187-18.818-18.768-5.04e-4 -17.495 0.009109-34.991-0.005127-52.486-0.005249-6.4495-2.2125-8.7094-8.5767-8.7157-20.828-0.020523-41.656-0.016068-62.484-0.003037-6.7877 0.004242-8.9281 2.1313-8.932 8.8384-0.009948 17.162-0.008117 34.324-0.001876 51.487 0.004715 12.976-5.2087 20.118-19.574 19.767-16.985-0.41415-33.989-0.067322-50.984-0.1218-3.4946-0.011184-6.6805 0.36482-8.9993 4.5288z" fill="#000723"/>
<path d="m51.645 215.13c2.1166-3.7943 5.3026-4.1703 8.7972-4.1592 16.995 0.054474 33.999-0.29236 50.984 0.1218 14.366 0.35027 19.579-6.7916 19.574-19.767-0.006241-17.162-0.008072-34.324 0.001876-51.487 0.003891-6.7071 2.1443-8.8342 8.932-8.8384 20.828-0.013031 41.656-0.017486 62.484 0.003037 6.3642 0.006271 8.5714 2.2662 8.5767 8.7157 0.014236 17.495 0.004623 34.991 0.005127 52.486 3.81e-4 13.249 5.3712 18.698 18.818 18.768 17.162 0.089081 34.324 0.018326 51.487 0.023545 7.782 0.00238 9.6927 1.8978 9.6944 9.6075 0.003845 17.662-0.003632 35.324 0.003113 52.986 0.00415 10.892 4.7868 16.771 15.711 17.145 16.141 0.55216 32.329 0.55829 48.471 0.00766 11.029-0.37628 15.812-6.3623 15.814-17.6 0.004242-17.495-0.007203-34.991 0.005035-52.486 0.005188-7.4291 2.1243-9.6417 9.3835-9.6516 20.495-0.028121 40.989-0.031906 61.484 0.002839 6.7362 0.011413 9.1071 2.3403 9.1174 8.9384 0.03241 20.661 0.031617 41.323 4.58e-4 61.984-0.010101 6.687-2.3794 9.0518-8.9657 9.0591-17.329 0.01944-34.658 0.006257-51.987 0.006684-13.653 3.35e-4 -18.957 5.2386-19.018 19.049-0.074615 16.829-0.017181 33.658-0.018371 50.487-6.11e-4 8.8155-1.628 10.464-10.328 10.464-20.328 6.1e-4 -40.656 0.007355-60.984-0.004059-6.4822-0.003631-8.675-2.1599-8.6817-8.5719-0.017883-16.996 0.019379-33.991-0.034301-50.987-0.007843-2.4801-0.13977-5.0123-0.64841-7.429-1.9437-9.2349-6.6335-12.99-16.032-13.002-18.162-0.022461-36.324 2.14e-4 -54.486-0.010162-6.7193-0.003846-8.798-2.1186-8.8023-8.9545-0.010757-16.996 0.039642-33.991-0.04657-50.987-0.01419-2.8002-0.34547-5.6543-0.96327-8.3855-1.7335-7.6634-6.6678-11.608-14.584-11.647-15.329-0.075577-30.659-0.10106-45.988 0.004578-11.604 0.079971-18.963 4.8785-18.548 18.528 0.52611 17.313 0.14268 34.654 0.11975 51.983-0.009613 7.2601-2.257 9.4564-9.5736 9.459-20.328 0.007446-40.656 0.008209-60.984-4.89e-4 -7.2692-0.003082-9.4245-2.1772-9.4302-9.5703-0.015587-20.328-0.015629-40.656 0.013782-60.984 0.002381-1.6465 0.27649-3.2927 0.62639-5.3087z" fill="#61E8FF"/>
</svg>
